<svg xmlns="http://www.w3.org/2000/svg" viewBox="0 0 512 512" width="100%" height="100%">
  <defs>
    <!-- 背景渐变：Indigo 到 Violet，契合 Recall 的品牌色 -->
    <linearGradient id="bg-grad" x1="0%" y1="0%" x2="100%" y2="100%">
      <stop offset="0%" stop-color="#4f46e5" />
      <stop offset="100%" stop-color="#7c3aed" />
    </linearGradient>
    <!-- 图标外发光阴影效果 -->
    <filter id="glow" x="-20%" y="-20%" width="140%" height="140%">
      <feDropShadow dx="0" dy="12" stdDeviation="16" flood-color="#4f46e5" flood-opacity="0.3" />
    </filter>
  </defs>
  
  <!-- 背景圆角矩形 -->
  <rect width="512" height="512" rx="140" fill="url(#bg-grad)" />
  
  <!-- 渐变光晕/内发光效果的装饰线 -->
  <circle cx="256" cy="256" r="200" fill="none" stroke="#ffffff" stroke-width="20" stroke-opacity="0.12" />
  
  <!-- 核心图标：官方齿轮对勾标志（进行平移和等比放大） -->
  <g transform="translate(89.6, 89.6) scale(13.86)" filter="url(#glow)">
    <path 
      fill="none" 
      stroke="#ffffff" 
      stroke-width="2.2" 
      stroke-linecap="round" 
      stroke-linejoin="round" 
      d="M9 12.75L11.25 15 15 9.75M21 12c0 1.268-.63 2.39-1.593 3.068a3.745 3.745 0 01-1.043 3.296 3.745 3.745 0 01-3.296 1.043A3.745 3.745 0 0110 21c-1.268 0-2.39-.63-3.068-1.593a3.746 3.746 0 01-3.296-1.043 3.745 3.745 0 01-1.043-3.296A3.745 3.745 0 013 12c0-1.268.63-2.39 1.593-3.068a3.745 3.745 0 011.043-3.296 3.746 3.746 0 013.296-1.043A3.746 3.746 0 0114 3c1.268 0 2.39.63 3.068 1.593a3.746 3.746 0 013.296 1.043 3.746 3.746 0 011.043 3.296A3.745 3.745 0 0121 12z" />
  </g>
</svg>
